<?xml version="1.0" standalone="no"?>
<!DOCTYPE svg PUBLIC "-//W3C//DTD SVG 20010904//EN"
 "http://www.w3.org/TR/2001/REC-SVG-20010904/DTD/svg10.dtd">
<svg version="1.0" xmlns="http://www.w3.org/2000/svg"
 width="1280.000000pt" height="1280.000000pt" viewBox="0 0 1280.000000 1280.000000"
 preserveAspectRatio="xMidYMid meet">
<g transform="translate(0.000000,1280.000000) scale(0.100000,-0.100000)"
fill="#f1f1f1" stroke="none">
<path d="M6282 11759 c-108 -14 -242 -59 -352 -117 l-105 -56 -1643 -1640
c-1750 -1748 -1710 -1706 -1782 -1874 -69 -163 -94 -364 -66 -534 103 -626
750 -983 1339 -738 166 69 181 82 989 888 499 498 759 751 763 741 3 -8 6
-1490 8 -3294 l2 -3280 23 -83 c47 -176 125 -315 246 -441 191 -197 425 -295
701 -294 174 1 306 34 452 113 131 70 262 187 343 305 49 72 117 222 142 315
l23 85 2 3288 c3 2562 6 3287 15 3287 7 0 350 -337 763 -748 760 -759 798
-794 940 -865 28 -13 86 -36 130 -50 539 -170 1101 148 1237 700 31 127 31
323 -1 448 -25 97 -89 244 -141 322 -38 57 -3239 3265 -3320 3327 -128 99
-312 174 -480 196 -86 11 -140 11 -228 -1z"/>
</g>
</svg>
